<svg width="30" height="50" viewBox="0 0 30 50" fill="none" xmlns="http://www.w3.org/2000/svg">
<path d="M10.8333 36.2903L4.36253 38.1169C3.34057 38.4213 2.44637 39.0348 1.81118 39.8672C1.176 40.6996 0.833292 41.7072 0.833377 42.7419V49.1936H29.1666V42.7419C29.1667 41.7072 28.824 40.6996 28.1888 39.8672C27.5536 39.0348 26.6594 38.4213 25.6375 38.1169L19.1667 36.2903H10.8333Z" fill="#595A5D"/>
<path d="M10 36.5258V49.1936H6.66669V37.4669L10 36.5258Z" fill="#FFC239"/>
<path d="M23.3333 37.4669V49.1936H20V36.5258L23.3333 37.4669Z" fill="#FFC239"/>
<path d="M20 45.1613H10V49.1936H20V45.1613Z" fill="#FFE2A0"/>
<path d="M27.5 16.9355H2.50004V22.5806H27.5V16.9355Z" fill="#434444"/>
<path d="M19.1667 32.0968V36.2903L16.5 38.2258C16.0673 38.5399 15.5409 38.7097 15 38.7097C14.4591 38.7097 13.9327 38.5399 13.5 38.2258L10.8333 36.2903V32.0968H19.1667Z" fill="#F4C8AD"/>
<path d="M10.8333 33.7016C12.1223 34.3429 13.5507 34.6774 15 34.6774C16.4493 34.6774 17.8777 34.3429 19.1667 33.7016V32.0968H10.8333V33.7016ZM5.83336 19.3548C4.94931 19.3548 4.10147 19.6947 3.47635 20.2997C2.85123 20.9046 2.50004 21.7251 2.50004 22.5806C2.50004 23.4362 2.85123 24.2567 3.47635 24.8616C4.10147 25.4666 4.94931 25.8065 5.83336 25.8065C5.8842 25.8065 5.9342 25.8065 5.9842 25.8065H24.0158C24.0658 25.8065 24.1158 25.8065 24.1666 25.8065C25.0507 25.8065 25.8985 25.4666 26.5237 24.8616C27.1488 24.2567 27.5 23.4362 27.5 22.5806C27.5 21.7251 27.1488 20.9046 26.5237 20.2997C25.8985 19.6947 25.0507 19.3548 24.1666 19.3548H5.83336Z" fill="#F2B9A1"/>
<path d="M5.83336 16.9355V24.1935C5.83336 26.5463 6.79913 28.8026 8.51821 30.4663C10.2373 32.1299 12.5689 33.0645 15 33.0645C17.4311 33.0645 19.7627 32.1299 21.4818 30.4663C23.2009 28.8026 24.1666 26.5463 24.1666 24.1935V16.9355H5.83336Z" fill="#F4C8AD"/>
<path d="M28.3333 12.9032H1.66671C1.20647 12.9032 0.833377 13.2643 0.833377 13.7097V16.129C0.833377 16.5744 1.20647 16.9355 1.66671 16.9355H28.3333C28.7935 16.9355 29.1666 16.5744 29.1666 16.129V13.7097C29.1666 13.2643 28.7935 12.9032 28.3333 12.9032Z" fill="#FFE2A0"/>
<path d="M4.1667 12.9032C4.1667 8.06452 8.14169 4.05564 13.3333 3.33952H16.6667C21.8583 4.05564 25.8333 8.06452 25.8333 12.9032H4.1667Z" fill="#EDA820"/>
<path d="M8.33336 23.3871C8.32782 24.6859 8.61826 25.9699 9.184 27.1476C9.74973 28.3254 10.5768 29.368 11.6064 30.2011C12.636 31.0342 13.8428 31.6374 15.1407 31.9677C16.4387 32.298 17.7959 32.3473 19.1158 32.1121C20.6335 31.3751 21.9096 30.2443 22.8015 28.8459C23.6934 27.4476 24.1661 25.8368 24.1666 24.1935V16.9355H8.33336V23.3871Z" fill="#FBDAC2"/>
<path d="M21.6667 9.67742C21.2246 9.67742 20.8007 9.50749 20.4881 9.20501C20.1756 8.90253 20 8.49228 20 8.06452V4.32581C18.9479 3.83303 17.8236 3.50035 16.6667 3.33952H13.3333C12.1764 3.50035 11.0521 3.83303 10 4.32581V8.06452C10 8.49228 9.82442 8.90253 9.51186 9.20501C9.1993 9.50749 8.77538 9.67742 8.33336 9.67742H4.7917C4.38044 10.7064 4.16857 11.7999 4.1667 12.9032H25.8333C25.8314 11.7999 25.6196 10.7064 25.2083 9.67742H21.6667Z" fill="#FFC239"/>
<path d="M15.8333 0.806452H14.1667C13.7064 0.806452 13.3333 1.16751 13.3333 1.6129V8.87097C13.3333 9.31636 13.7064 9.67742 14.1667 9.67742H15.8333C16.2936 9.67742 16.6667 9.31636 16.6667 8.87097V1.6129C16.6667 1.16751 16.2936 0.806452 15.8333 0.806452Z" fill="#FFCE61"/>
<path d="M28.3333 12.0968H26.625C26.3495 9.78643 25.3138 7.623 23.6707 5.92578C22.0277 4.22857 19.8643 3.08749 17.5 2.67097V1.6129C17.5 1.18513 17.3244 0.774886 17.0118 0.472408C16.6993 0.16993 16.2754 0 15.8333 0H14.1667C13.7246 0 13.3007 0.16993 12.9882 0.472408C12.6756 0.774886 12.5 1.18513 12.5 1.6129V2.67097C10.1357 3.08749 7.97234 4.22857 6.32929 5.92578C4.68625 7.623 3.65054 9.78643 3.37504 12.0968H1.66671C1.22468 12.0968 0.80076 12.2667 0.4882 12.5692C0.175641 12.8717 4.62028e-05 13.2819 4.62028e-05 13.7097V16.129C4.62028e-05 16.5568 0.175641 16.967 0.4882 17.2695C0.80076 17.572 1.22468 17.7419 1.66671 17.7419V22.5806C1.66984 23.5604 2.04225 24.5055 2.71409 25.2385C3.38592 25.9715 4.31102 26.4421 5.31586 26.5621C5.64465 27.8136 6.22833 28.9889 7.03269 30.0192C7.83704 31.0496 8.84587 31.9141 10 32.5621V35.6855L4.11753 37.3468C2.92268 37.6975 1.87664 38.412 1.13484 39.384C0.39304 40.356 -0.00493538 41.5336 4.62028e-05 42.7419V49.1936C4.62028e-05 49.4074 0.0878435 49.6126 0.244123 49.7638C0.400403 49.915 0.612364 50 0.833377 50H29.1666C29.3876 50 29.5996 49.915 29.7559 49.7638C29.9122 49.6126 30 49.4074 30 49.1936V42.7419C30.0044 41.5317 29.6048 40.3525 28.8608 39.3798C28.1168 38.4071 27.0681 37.6929 25.8708 37.3435L20 35.6855V32.5621C21.1541 31.9141 22.163 31.0496 22.9673 30.0192C23.7717 28.9889 24.3554 27.8136 24.6841 26.5621C25.689 26.4421 26.6141 25.9715 27.2859 25.2385C27.9578 24.5055 28.3302 23.5604 28.3333 22.5806V17.7419C28.7753 17.7419 29.1993 17.572 29.5118 17.2695C29.8244 16.967 30 16.5568 30 16.129V13.7097C30 13.2819 29.8244 12.8717 29.5118 12.5692C29.1993 12.2667 28.7753 12.0968 28.3333 12.0968ZM23.8808 8.87097H21.6667C21.4456 8.87097 21.2337 8.786 21.0774 8.63476C20.9211 8.48352 20.8333 8.2784 20.8333 8.06452V5.72016C22.0906 6.52437 23.1346 7.60376 23.8808 8.87097ZM14.1667 1.6129H15.8333V8.87097H14.1667V1.6129ZM9.16669 5.72016V8.06452C9.16669 8.2784 9.07889 8.48352 8.92261 8.63476C8.76633 8.786 8.55437 8.87097 8.33336 8.87097H6.1192C6.86537 7.60376 7.90937 6.52437 9.16669 5.72016ZM5.3892 10.4839H8.33336C8.9964 10.4839 9.63228 10.229 10.1011 9.77526C10.57 9.32154 10.8333 8.70617 10.8333 8.06452V4.84435C11.3726 4.62304 11.9301 4.44607 12.5 4.31532V8.87097C12.5 9.29874 12.6756 9.70898 12.9882 10.0115C13.3007 10.3139 13.7246 10.4839 14.1667 10.4839H15.8333C16.2754 10.4839 16.6993 10.3139 17.0118 10.0115C17.3244 9.70898 17.5 9.29874 17.5 8.87097V4.31532C18.0699 4.44607 18.6274 4.62304 19.1667 4.84435V8.06452C19.1667 8.70617 19.4301 9.32154 19.8989 9.77526C20.3677 10.229 21.0036 10.4839 21.6667 10.4839H24.6108C24.7831 11.0086 24.8992 11.5491 24.9575 12.0968H5.04086C5.09967 11.549 5.21639 11.0086 5.3892 10.4839ZM5.00003 17.7419V18.629C4.39365 18.7534 3.82401 19.0084 3.33337 19.375V17.7419H5.00003ZM3.33337 22.5806C3.33551 22.082 3.49677 21.5963 3.79511 21.1898C4.09344 20.7833 4.51428 20.4759 5.00003 20.3097V24.1935C5.00003 24.4194 5.0192 24.6403 5.03503 24.8621C4.541 24.701 4.11136 24.3945 3.80625 23.9854C3.50113 23.5763 3.33579 23.0852 3.33337 22.5806ZM9.16669 48.3871H7.50003V38.0718L9.16669 37.6008V48.3871ZM10.8333 45.9677H19.1667V48.3871H10.8333V45.9677ZM20.8333 37.6008L22.5 38.0718V48.3871H20.8333V37.6008ZM19.1667 37.2984V44.3548H10.8333V37.2984L13 38.871C13.577 39.2897 14.2788 39.5161 15 39.5161C15.7212 39.5161 16.423 39.2897 17 38.871L19.1667 37.2984ZM1.66671 42.7419C1.66274 41.8807 1.94559 41.0412 2.47333 40.3477C3.00108 39.6542 3.74565 39.1438 4.5967 38.8919L5.83336 38.5419V48.3871H1.66671V42.7419ZM28.3333 42.7419V48.3871H24.1666V38.5427L25.3925 38.8887C26.2458 39.1393 26.9929 39.6496 27.5227 40.3437C28.0525 41.0379 28.3368 41.879 28.3333 42.7419ZM18.3333 35.8871L16 37.5806C15.7083 37.7826 15.3587 37.8912 15 37.8912C14.6413 37.8912 14.2917 37.7826 14 37.5806L11.6667 35.8871V33.3065C13.8208 34.0591 16.1792 34.0591 18.3333 33.3065V35.8871ZM15 32.2581C12.7906 32.2557 10.6724 31.4053 9.11014 29.8934C7.54787 28.3815 6.66912 26.3317 6.66669 24.1935V17.7419H23.3333V24.1935C23.3309 26.3317 22.4521 28.3815 20.8899 29.8934C19.3276 31.4053 17.2094 32.2557 15 32.2581ZM24.965 24.8621C24.9808 24.6403 25 24.4194 25 24.1935V20.3097C25.4897 20.4751 25.9136 20.7848 26.2124 21.1951C26.5111 21.6055 26.6696 22.096 26.6658 22.598C26.6619 23.1 26.4959 23.5882 26.1908 23.9942C25.8858 24.4002 25.4572 24.7037 24.965 24.8621ZM26.6666 19.3758C26.176 19.0092 25.6064 18.7543 25 18.6298V17.7419H26.6666V19.3758ZM1.66671 16.129V13.7097H28.3333V16.129H1.66671Z" fill="black"/>
</svg>
