<svg width="50" height="50" viewBox="0 0 50 50" fill="none" xmlns="http://www.w3.org/2000/svg">
<path d="M48.7115 10.0062C48.5574 10.0097 48.4053 10.0418 48.2628 10.1006L24.5197 20.0926C24.2921 20.1875 24.0977 20.3476 23.9607 20.5526C23.8237 20.7577 23.7504 20.9987 23.7498 21.2453V48.7409C23.7495 48.9472 23.8002 49.1504 23.8973 49.3324C23.9944 49.5144 24.135 49.6695 24.3065 49.7841C24.4781 49.8986 24.6753 49.969 24.8805 49.9889C25.0858 50.0089 25.2929 49.9777 25.4832 49.8983L49.2311 39.8969C49.4585 39.801 49.6525 39.6399 49.7886 39.4339C49.9248 39.228 49.997 38.9864 49.9962 38.7395V11.2534C49.995 11.0869 49.9607 10.9224 49.8951 10.7694C49.8296 10.6164 49.7343 10.4781 49.6146 10.3624C49.495 10.2467 49.3535 10.156 49.1985 10.0956C49.0434 10.0353 48.8779 10.0065 48.7115 10.0109V10.0062Z" fill="#E7A22A"/>
<path d="M1.26306 9.9967C1.21884 9.99751 1.1747 10.0007 1.13081 10.0062C0.824757 10.0399 0.541862 10.1852 0.336222 10.4144C0.130582 10.6437 0.0166299 10.9407 0.0161553 11.2486V38.7442C0.0145905 38.99 0.0854191 39.2309 0.219807 39.4367C0.354194 39.6426 0.546193 39.8043 0.771855 39.9017L24.5197 49.9031C24.7097 49.9823 24.9163 50.0135 25.1212 49.9938C25.3261 49.9741 25.523 49.9041 25.6944 49.7901C25.8659 49.6761 26.0065 49.5216 26.104 49.3402C26.2014 49.1588 26.2526 48.9562 26.2531 48.7503V21.2548C26.2535 21.0073 26.1806 20.7653 26.0435 20.5593C25.9065 20.3533 25.7115 20.1925 25.4832 20.0973L1.74954 10.0959C1.59563 10.0307 1.43022 9.99695 1.26306 9.9967Z" fill="#F7B137"/>
<path d="M25.0062 3.51928e-05C24.8394 -0.00121604 24.674 0.0309089 24.5197 0.0945216L0.771855 10.0959C0.54409 10.1911 0.349565 10.3516 0.212747 10.5571C0.075929 10.7627 0.00292882 11.0041 0.00292882 11.251C0.00292882 11.4979 0.075929 11.7393 0.212747 11.9449C0.349565 12.1504 0.54409 12.3109 0.771855 12.4061L24.5197 22.4028C24.6723 22.4664 24.8361 22.4992 25.0015 22.4992C25.1668 22.4992 25.3306 22.4664 25.4832 22.4028L49.2311 12.4014C49.4588 12.3062 49.6534 12.1457 49.7902 11.9402C49.927 11.7346 50 11.4932 50 11.2463C50 10.9994 49.927 10.758 49.7902 10.5524C49.6534 10.3469 49.4588 10.1864 49.2311 10.0912L25.4832 0.0945216C25.3334 0.0327362 25.173 0.000646701 25.0109 3.51928e-05H25.0062Z" fill="#F9BD55"/>
<path d="M25.002 0.00404695C24.8339 0.000696148 24.6669 0.0313061 24.5109 0.0940442L0.76784 10.0962C0.767006 10.0971 0.766172 10.0979 0.76534 10.0987C0.511473 10.2055 0.299971 10.3931 0.163705 10.6325C0.0274383 10.8719 -0.0259593 11.1496 0.0118107 11.4224V38.7479C0.0109981 38.9929 0.0822312 39.2328 0.216651 39.4377C0.351072 39.6427 0.542747 39.8035 0.76784 39.9003L24.5109 49.9025C24.52 49.9059 24.5292 49.9093 24.5384 49.9125C24.5426 49.9142 24.5467 49.9159 24.5509 49.9175C24.587 49.9313 24.6237 49.9434 24.6609 49.9538C24.6906 49.9624 24.7206 49.9699 24.7508 49.9762C24.7517 49.9763 24.7525 49.9763 24.7533 49.9762C24.7831 49.9819 24.8132 49.9865 24.8433 49.99C24.8537 49.9918 24.8641 49.9935 24.8745 49.995C24.8804 49.995 24.8862 49.995 24.892 49.995C24.917 49.9966 24.942 49.9974 24.967 49.9975C24.9882 49.9989 25.0095 49.9997 25.0308 50C25.0416 49.9993 25.0524 49.9985 25.0632 49.9975C25.0933 49.9961 25.1233 49.9936 25.1532 49.99C25.1574 49.9892 25.1616 49.9884 25.1657 49.9875C25.1992 49.9834 25.2326 49.978 25.2657 49.9713C25.2699 49.9704 25.274 49.9696 25.2782 49.9688C25.3085 49.9615 25.3385 49.9532 25.3682 49.9438C25.3715 49.9429 25.3748 49.9421 25.3781 49.9413C25.4129 49.9298 25.447 49.9169 25.4806 49.9025L25.4856 49.9L49.2262 39.9003C49.4527 39.8046 49.6459 39.6443 49.7817 39.4393C49.9176 39.2343 49.9899 38.9938 49.9897 38.7479V11.3437C50.0095 11.0819 49.9465 10.8205 49.8094 10.5966C49.6724 10.3727 49.4683 10.1976 49.2262 10.0962L37.7983 5.28263C37.7209 5.23995 37.6392 5.20559 37.5546 5.18014L25.4806 0.0940442C25.3285 0.03294 25.1659 0.00236029 25.002 0.00404695ZM25.002 2.60397L33.9644 6.3826L13.4429 15.0261L4.4855 11.2512L25.002 2.60397ZM37.1859 7.74131L45.516 11.2512L24.997 19.8934L16.6619 16.3823L37.1859 7.74131ZM2.50108 13.1324L23.7449 22.0821V46.8663L2.50108 37.9166V13.1324ZM47.4904 13.1324V37.9166L26.2466 46.8663V22.0834L47.4904 13.1324ZM6.39869 28.9994C6.35407 28.9987 6.30943 29.0003 6.26498 29.0044C5.98469 29.0291 5.72094 29.1478 5.51644 29.3411C5.31194 29.5345 5.17866 29.7912 5.13818 30.0697C5.09769 30.3482 5.15238 30.6323 5.29338 30.8759C5.43437 31.1194 5.65343 31.3083 5.91509 31.4118L10.6287 33.3968C10.9346 33.5252 11.279 33.5269 11.5861 33.4013C11.8932 33.2758 12.1379 33.0334 12.2664 32.7274C12.3948 32.4214 12.3964 32.0769 12.2709 31.7697C12.1454 31.4625 11.9031 31.2178 11.5972 31.0893L6.8848 29.1044C6.73144 29.0372 6.56613 29.0015 6.39869 28.9994ZM6.39869 33.9992C6.35407 33.9985 6.30943 34.0002 6.26498 34.0042C5.98366 34.0279 5.71862 34.1461 5.51306 34.3397C5.30749 34.5332 5.17351 34.7907 5.13294 35.0702C5.09236 35.3496 5.14759 35.6346 5.28961 35.8787C5.43164 36.1227 5.6521 36.3115 5.91509 36.4142L10.6287 38.3966C10.7802 38.4602 10.9427 38.4934 11.107 38.4941C11.2712 38.4949 11.4341 38.4633 11.5861 38.4012C11.7382 38.339 11.8765 38.2475 11.9932 38.1319C12.11 38.0163 12.2028 37.8788 12.2664 37.7273C12.3299 37.5757 12.3631 37.4132 12.3639 37.2489C12.3647 37.0846 12.3331 36.9217 12.2709 36.7696C12.2088 36.6175 12.1173 36.4791 12.0017 36.3624C11.8861 36.2456 11.7486 36.1528 11.5972 36.0892L6.8848 34.1067C6.73161 34.0387 6.5663 34.0021 6.39869 33.9992Z" fill="black"/>
</svg>
