<svg width="15" height="15" viewBox="0 0 15 15" fill="none" xmlns="http://www.w3.org/2000/svg">
<path d="M13.816 0.290998C13.5516 0.143611 13.2608 0.0498825 12.9602 0.0151717C12.6596 -0.0195391 12.3552 0.00544908 12.0642 0.0887074C11.7733 0.171966 11.5016 0.311861 11.2647 0.500393C11.0278 0.688925 10.8302 0.922395 10.6835 1.18745L6.40735 8.89673L3.96007 6.44504C3.7476 6.22465 3.49344 6.04886 3.21242 5.92793C2.93141 5.80699 2.62917 5.74334 2.32334 5.74068C2.0175 5.73801 1.7142 5.7964 1.43113 5.91242C1.14806 6.02844 0.890892 6.19978 0.674627 6.41643C0.458362 6.63309 0.287333 6.89072 0.17152 7.1743C0.0557074 7.45788 -0.00257064 7.76173 8.69658e-05 8.06812C0.00274457 8.3745 0.0662846 8.67729 0.186999 8.95881C0.307714 9.24033 0.483186 9.49495 0.703176 9.70781L5.30982 14.3228C5.74515 14.76 6.33249 15 6.93826 15L7.25728 14.9769C7.61032 14.9275 7.94708 14.7966 8.24105 14.5946C8.53502 14.3925 8.77817 14.1249 8.95137 13.8128L14.7097 3.42916C14.8567 3.16433 14.9502 2.87307 14.9848 2.57203C15.0195 2.27099 14.9946 1.96606 14.9116 1.67465C14.8286 1.38324 14.6892 1.11106 14.5012 0.873654C14.3132 0.636246 14.0804 0.438259 13.816 0.290998Z" fill="#0A6CFF" fill-opacity="0.9"/>
</svg>
